<svg width="24" height="24" viewBox="0 0 24 24" fill="none" xmlns="http://www.w3.org/2000/svg">
<g clip-path="url(#clip0_989_12742)">
<path d="M5.47983 2.82947C6.20669 0.659917 8.55769 -0.510612 10.7309 0.215022C12.9042 0.940655 14.0767 3.28767 13.3498 5.45722L8.08539 21.1705C7.35853 23.3401 5.00753 24.5106 2.83429 23.7849C0.661039 23.0593 -0.51148 20.7123 0.215387 18.5428L5.47983 2.82947Z" fill="#424242"/>
<path d="M9.65378 2.82947C10.3806 0.659917 12.7316 -0.510612 14.9049 0.215022C17.0781 0.940655 18.2507 3.28767 17.5238 5.45722L12.2593 21.1705C11.5325 23.3401 9.18148 24.5106 7.00824 23.7849C4.835 23.0593 3.66247 20.7123 4.38934 18.5428L9.65378 2.82947Z" fill="#3086C0" fill-opacity="0.8"/>
<path d="M18.8261 24.0002C21.1313 24.0002 23 22.1314 23 19.8263C23 17.5211 21.1313 15.6523 18.8261 15.6523C16.5209 15.6523 14.6522 17.5211 14.6522 19.8263C14.6522 22.1314 16.5209 24.0002 18.8261 24.0002Z" fill="#3086C0"/>
</g>
<defs>
<clipPath id="clip0_989_12742">
<rect width="24" height="24" fill="white"/>
</clipPath>
</defs>
</svg>
