<svg width="119" height="25" viewBox="0 0 119 25" fill="none" xmlns="http://www.w3.org/2000/svg">
<g clip-path="url(#clip0_947_1862)">
<path d="M5.47983 3.50941C6.20669 1.33985 8.55769 0.16932 10.7309 0.894953C12.9042 1.62059 14.0767 3.9676 13.3498 6.13716L8.08539 21.8504C7.35853 24.02 5.00753 25.1905 2.83429 24.4649C0.661039 23.7392 -0.51148 21.3922 0.215387 19.2227L5.47983 3.50941Z" fill="#424242"/>
<path d="M9.65378 3.50941C10.3806 1.33985 12.7316 0.16932 14.9049 0.894953C17.0781 1.62059 18.2507 3.9676 17.5238 6.13716L12.2593 21.8504C11.5325 24.02 9.18148 25.1905 7.00824 24.4649C4.835 23.7392 3.66247 21.3922 4.38934 19.2227L9.65378 3.50941Z" fill="#3086C0" fill-opacity="0.8"/>
<path d="M18.8261 24.6801C21.1313 24.6801 23 22.8114 23 20.5062C23 18.201 21.1313 16.3323 18.8261 16.3323C16.5209 16.3323 14.6522 18.201 14.6522 20.5062C14.6522 22.8114 16.5209 24.6801 18.8261 24.6801Z" fill="#3086C0"/>
</g>
<path d="M44.448 23.6799L42.656 17.9839H34.72L32.96 23.6799H28.672L36.16 1.34393H41.408L48.832 23.6799H44.448ZM38.752 5.18393H38.592L35.744 14.3679H41.632L38.752 5.18393ZM55.324 23.6799C53.916 23.6799 52.8813 23.3279 52.22 22.6239C51.5587 21.9199 51.228 20.9279 51.228 19.6479V-6.86646e-05H55.324V20.4159H57.532V23.6799H55.324ZM65.054 23.6799C63.646 23.6799 62.5687 23.3173 61.822 22.5919C61.0967 21.8453 60.734 20.7893 60.734 19.4239V10.2399H58.27V6.97593H59.55C60.1687 6.97593 60.5847 6.83726 60.798 6.55993C61.0327 6.26126 61.15 5.82393 61.15 5.24793V2.39993H64.83V6.97593H68.254V10.2399H64.83V20.4159H67.998V23.6799H65.054ZM77.7938 24.0639C76.5564 24.0639 75.4471 23.8613 74.4658 23.4559C73.5058 23.0293 72.6844 22.4426 72.0018 21.6959C71.3404 20.9279 70.8284 20.0106 70.4658 18.9439C70.1031 17.8559 69.9218 16.6399 69.9218 15.2959C69.9218 13.9733 70.0924 12.7786 70.4338 11.7119C70.7964 10.6453 71.3084 9.7386 71.9698 8.99193C72.6311 8.22393 73.4418 7.63726 74.4018 7.23193C75.3618 6.80526 76.4498 6.59193 77.6658 6.59193C78.9671 6.59193 80.0978 6.81593 81.0578 7.26393C82.0178 7.71193 82.8071 8.31993 83.4258 9.08793C84.0444 9.85593 84.5031 10.7519 84.8018 11.7759C85.1218 12.7786 85.2818 13.8559 85.2818 15.0079V16.3519H74.1778V16.7679C74.1778 17.9839 74.5191 18.9653 75.2018 19.7119C75.8844 20.4373 76.8978 20.7999 78.2418 20.7999C79.2658 20.7999 80.0978 20.5866 80.7378 20.1599C81.3991 19.7333 81.9858 19.1893 82.4978 18.5279L84.7058 20.9919C84.0231 21.9519 83.0844 22.7093 81.8898 23.2639C80.7164 23.7973 79.3511 24.0639 77.7938 24.0639ZM77.7298 9.66393C76.6418 9.66393 75.7778 10.0266 75.1378 10.7519C74.4978 11.4773 74.1778 12.4159 74.1778 13.5679V13.8239H81.0258V13.5359C81.0258 12.3839 80.7378 11.4559 80.1618 10.7519C79.6071 10.0266 78.7964 9.66393 77.7298 9.66393ZM88.2455 23.6799V6.97593H92.3415V10.4319H92.5015C92.6082 9.98393 92.7682 9.55726 92.9815 9.15193C93.2162 8.72526 93.5148 8.35193 93.8775 8.03193C94.2402 7.71193 94.6668 7.45593 95.1575 7.26393C95.6695 7.07193 96.2562 6.97593 96.9175 6.97593H97.8135V10.8479H96.5335C95.1468 10.8479 94.1015 11.0506 93.3975 11.4559C92.6935 11.8613 92.3415 12.5226 92.3415 13.4399V23.6799H88.2455ZM112.112 23.6799C111.216 23.6799 110.502 23.4239 109.968 22.9119C109.456 22.3786 109.136 21.6746 109.008 20.7999H108.816C108.539 21.8879 107.974 22.7093 107.12 23.2639C106.267 23.7973 105.211 24.0639 103.952 24.0639C102.246 24.0639 100.934 23.6159 100.016 22.7199C99.0989 21.8239 98.6403 20.6293 98.6403 19.1359C98.6403 17.4079 99.2589 16.1279 100.496 15.2959C101.734 14.4426 103.494 14.0159 105.776 14.0159H108.624V12.7999C108.624 11.8613 108.379 11.1359 107.888 10.6239C107.398 10.1119 106.608 9.85593 105.52 9.85593C104.56 9.85593 103.782 10.0693 103.184 10.4959C102.608 10.9013 102.118 11.3919 101.712 11.9679L99.2803 9.79193C99.8989 8.83193 100.72 8.06393 101.744 7.48793C102.768 6.8906 104.123 6.59193 105.808 6.59193C108.07 6.59193 109.787 7.10393 110.96 8.12793C112.134 9.15193 112.72 10.6239 112.72 12.5439V20.4159H114.384V23.6799H112.112ZM105.328 21.0879C106.246 21.0879 107.024 20.8853 107.664 20.4799C108.304 20.0746 108.624 19.4773 108.624 18.6879V16.4799H106C103.867 16.4799 102.8 17.1626 102.8 18.5279V19.0719C102.8 19.7546 103.014 20.2666 103.44 20.6079C103.888 20.9279 104.518 21.0879 105.328 21.0879Z" fill="#424242"/>
<defs>
<clipPath id="clip0_947_1862">
<rect width="24" height="24" fill="white" transform="translate(0 0.679932)"/>
</clipPath>
</defs>
</svg>
