<svg width="30" height="30" viewBox="0 0 30 30" fill="none" xmlns="http://www.w3.org/2000/svg">
<rect width="30" height="30" rx="15" fill="white" fill-opacity="0.2"/>
<path fill-rule="evenodd" clip-rule="evenodd" d="M11.908 7.545C12.7077 7.50818 12.9627 7.5 15 7.5C17.0373 7.5 17.2923 7.50886 18.0914 7.545C18.8905 7.58114 19.4359 7.70864 19.9132 7.89341C20.413 8.08227 20.8664 8.3775 21.2414 8.75932C21.6232 9.13364 21.9177 9.58636 22.1059 10.0868C22.2914 10.5641 22.4182 11.1095 22.455 11.9073C22.4918 12.7084 22.5 12.9634 22.5 15C22.5 17.0373 22.4911 17.2923 22.455 18.092C22.4189 18.8898 22.2914 19.4352 22.1059 19.9125C21.9177 20.413 21.6227 20.8665 21.2414 21.2414C20.8664 21.6232 20.413 21.9177 19.9132 22.1059C19.4359 22.2914 18.8905 22.4182 18.0927 22.455C17.2923 22.4918 17.0373 22.5 15 22.5C12.9627 22.5 12.7077 22.4911 11.908 22.455C11.1102 22.4189 10.5648 22.2914 10.0875 22.1059C9.58699 21.9177 9.13351 21.6227 8.75864 21.2414C8.37708 20.8668 8.08181 20.4136 7.89341 19.9132C7.70864 19.4359 7.58182 18.8905 7.545 18.0927C7.50818 17.2916 7.5 17.0366 7.5 15C7.5 12.9627 7.50886 12.7077 7.545 11.9086C7.58114 11.1095 7.70864 10.5641 7.89341 10.0868C8.08208 9.58642 8.37758 9.13317 8.75932 8.75864C9.13366 8.37716 9.58669 8.08189 10.0868 7.89341C10.5641 7.70864 11.1095 7.58182 11.9073 7.545H11.908ZM18.0307 8.895C17.2398 8.85886 17.0025 8.85136 15 8.85136C12.9975 8.85136 12.7602 8.85886 11.9693 8.895C11.2377 8.92841 10.8409 9.05045 10.5764 9.15341C10.2266 9.28977 9.97636 9.45136 9.71386 9.71386C9.46503 9.95594 9.27353 10.2506 9.15341 10.5764C9.05045 10.8409 8.92841 11.2377 8.895 11.9693C8.85886 12.7602 8.85136 12.9975 8.85136 15C8.85136 17.0025 8.85886 17.2398 8.895 18.0307C8.92841 18.7623 9.05045 19.1591 9.15341 19.4236C9.27341 19.7489 9.465 20.0441 9.71386 20.2861C9.95591 20.535 10.2511 20.7266 10.5764 20.8466C10.8409 20.9495 11.2377 21.0716 11.9693 21.105C12.7602 21.1411 12.9968 21.1486 15 21.1486C17.0032 21.1486 17.2398 21.1411 18.0307 21.105C18.7623 21.0716 19.1591 20.9495 19.4236 20.8466C19.7734 20.7102 20.0236 20.5486 20.2861 20.2861C20.535 20.0441 20.7266 19.7489 20.8466 19.4236C20.9495 19.1591 21.0716 18.7623 21.105 18.0307C21.1411 17.2398 21.1486 17.0025 21.1486 15C21.1486 12.9975 21.1411 12.7602 21.105 11.9693C21.0716 11.2377 20.9495 10.8409 20.8466 10.5764C20.7102 10.2266 20.5486 9.97636 20.2861 9.71386C20.044 9.46505 19.7493 9.27355 19.4236 9.15341C19.1591 9.05045 18.7623 8.92841 18.0307 8.895V8.895ZM14.042 17.312C14.577 17.5347 15.1728 17.5648 15.7275 17.3971C16.2821 17.2294 16.7614 16.8743 17.0834 16.3924C17.4053 15.9106 17.55 15.332 17.4928 14.7553C17.4355 14.1786 17.1798 13.6398 16.7693 13.2307C16.5077 12.9692 16.1913 12.769 15.843 12.6444C15.4946 12.5199 15.123 12.4741 14.7549 12.5104C14.3867 12.5467 14.0312 12.6642 13.714 12.8544C13.3967 13.0446 13.1255 13.3028 12.92 13.6104C12.7145 13.9179 12.5797 14.2672 12.5254 14.6332C12.471 14.9991 12.4985 15.3725 12.6058 15.7265C12.7131 16.0805 12.8976 16.4063 13.1459 16.6805C13.3943 16.9547 13.7003 17.1704 14.042 17.312ZM12.2741 12.2741C12.6321 11.9161 13.057 11.6322 13.5247 11.4384C13.9925 11.2447 14.4938 11.145 15 11.145C15.5062 11.145 16.0075 11.2447 16.4753 11.4384C16.943 11.6322 17.3679 11.9161 17.7259 12.2741C18.0839 12.6321 18.3678 13.057 18.5616 13.5247C18.7553 13.9925 18.855 14.4938 18.855 15C18.855 15.5062 18.7553 16.0075 18.5616 16.4753C18.3678 16.943 18.0839 17.3679 17.7259 17.7259C17.003 18.4489 16.0224 18.855 15 18.855C13.9776 18.855 12.997 18.4489 12.2741 17.7259C11.5511 17.003 11.145 16.0224 11.145 15C11.145 13.9776 11.5511 12.997 12.2741 12.2741V12.2741ZM19.71 11.7191C19.7987 11.6354 19.8697 11.5348 19.9188 11.4232C19.968 11.3115 19.9942 11.1912 19.996 11.0693C19.9977 10.9473 19.975 10.8263 19.9292 10.7133C19.8833 10.6003 19.8153 10.4976 19.7291 10.4114C19.6428 10.3252 19.5402 10.2571 19.4272 10.2113C19.3142 10.1654 19.1931 10.1427 19.0712 10.1445C18.9492 10.1463 18.8289 10.1725 18.7173 10.2216C18.6057 10.2707 18.505 10.3417 18.4214 10.4305C18.2586 10.603 18.1695 10.8321 18.173 11.0693C18.1764 11.3064 18.2722 11.5329 18.4399 11.7006C18.6076 11.8683 18.834 11.964 19.0712 11.9675C19.3083 11.9709 19.5375 11.8818 19.71 11.7191V11.7191Z" fill="white"/>
</svg>
